<svg width="20" height="22" viewBox="0 0 20 22" fill="none" xmlns="http://www.w3.org/2000/svg">
<path fill-rule="evenodd" clip-rule="evenodd" d="M19.9994 15.9838V19.0006C20.0005 19.2806 19.9431 19.5579 19.8309 19.8144C19.7188 20.0711 19.5542 20.3014 19.3478 20.4908C19.1414 20.68 18.8978 20.8242 18.6325 20.914C18.3673 21.0036 18.0861 21.037 17.8072 21.0118C14.7128 20.6755 11.7404 19.6182 9.1289 17.9245C6.69921 16.3806 4.63927 14.3207 3.09533 11.891C1.39586 9.26763 0.338244 6.2808 0.00816516 3.17252C-0.0169709 2.89444 0.0160808 2.61417 0.105207 2.34956C0.194321 2.08495 0.337568 1.8418 0.525803 1.63558C0.714051 1.42937 0.943168 1.26461 1.19857 1.1518C1.45398 1.03898 1.73008 0.980585 2.00929 0.980322H5.02608C5.5141 0.975514 5.98721 1.14833 6.35724 1.46656C6.72728 1.78478 6.96897 2.2267 7.03727 2.70994C7.16459 3.67537 7.40074 4.62332 7.74119 5.53566C7.87648 5.89559 7.90576 6.28676 7.82555 6.66282C7.74536 7.03888 7.55904 7.38406 7.28867 7.65747L6.01156 8.93457C7.44308 11.4521 9.52758 13.5366 12.0451 14.9682L13.3223 13.691C13.5957 13.4206 13.9409 13.2344 14.3169 13.1541C14.693 13.0739 15.0841 13.1032 15.4441 13.2385C16.3564 13.5789 17.3043 13.8152 18.2698 13.9424C18.7583 14.0113 19.2043 14.2574 19.5233 14.6338C19.8422 15.0101 20.0117 15.4906 19.9994 15.9838Z" fill="white"/>
</svg>
