<svg width="230" height="116" viewBox="0 0 230 116" fill="none" xmlns="http://www.w3.org/2000/svg">
<path d="M144.086 75.2168L152.924 84.2708L161.763 75.2168H171.302L156.912 90.0913H148.936L134.547 75.2168H144.086Z" fill="#021D40"/>
<path d="M133.899 80.0133C133.899 80.9833 133.719 81.7738 133.36 82.3846C133.037 82.9594 132.552 83.4085 131.905 83.7319C131.258 84.0552 130.468 84.2888 129.534 84.4325C128.599 84.5403 127.522 84.5942 126.3 84.5942L136.055 90.0913H124.468L114.497 84.5942H106.629V90.0913H97.8984V75.2168H126.785C129.084 75.2168 130.845 75.594 132.067 76.3485C133.288 77.0671 133.899 78.2887 133.899 80.0133ZM124.522 79.9055C124.522 79.4743 124.306 79.1151 123.875 78.8276C123.48 78.5402 122.707 78.3246 121.557 78.1809H106.629V81.5223H121.665C122.743 81.5223 123.48 81.4145 123.875 81.1989C124.306 80.9474 124.522 80.5163 124.522 79.9055Z" fill="#021D40"/>
<path d="M67.457 75.2168L76.2955 84.2708L85.1339 75.2168H94.673L80.2835 90.0913H72.3074L57.918 75.2168H67.457Z" fill="#021D40"/>
<path d="M126.504 3.70168C122.578 4.49634 118.796 5.13207 115.184 5.6486H114.381C110.769 5.13207 106.988 4.49138 103.062 3.70168C98.1181 2.70339 93.4736 1.57098 89.1484 0.374023C91.3485 2.74808 93.0296 4.56091 94.8306 6.50287C104.484 16.9179 108.52 20.6975 109.886 21.9988C112.002 24.0053 113.743 25.5847 114.78 26.5085C115.818 25.5797 117.559 24.0053 119.674 21.9988C121.046 20.6975 125.077 16.9179 134.73 6.50287C136.531 4.56091 138.212 2.74808 140.412 0.374023C136.092 1.57098 131.448 2.70339 126.504 3.70168Z" fill="#021D40"/>
<path d="M46.6445 21.6307C52.5117 21.6257 58.3789 21.6058 64.2461 21.551C65.7353 21.536 66.9904 21.7602 68.1111 22.313C69.401 22.9456 70.1631 23.8222 70.5466 24.2555C72.0906 25.9937 74.2771 28.225 77.395 31.2533C75.9904 31.2682 74.1127 31.2832 72.7132 31.2981C64.2361 31.3728 55.779 31.4326 47.3368 31.4674" fill="#021D40"/>
<path d="M47.5199 31.4676C41.6528 31.4726 35.7856 31.4925 29.9184 31.5473C28.4292 31.5622 27.1741 31.3381 26.0534 30.7853C24.7634 30.1527 24.0014 29.2761 23.6179 28.8428C22.0739 27.1046 19.8874 24.8732 16.7695 21.845C18.1741 21.8301 20.0518 21.8151 21.4513 21.8002C29.9284 21.7255 38.3855 21.6657 46.8276 21.6309" fill="#021D40"/>
<path d="M61.5977 37.4051C67.4648 37.4001 73.332 37.3802 79.1992 37.3254C80.6884 37.3105 81.9435 37.5346 83.0642 38.0874C84.3542 38.72 85.1162 39.5966 85.4997 40.0299C87.0437 41.7681 89.2302 43.9994 92.3481 47.0277C90.9435 47.0426 89.0658 47.0576 87.6663 47.0725C79.1892 47.1472 70.7321 47.207 62.29 47.2418" fill="#021D40"/>
<path d="M62.4692 47.242C56.602 47.247 50.7348 47.2669 44.8676 47.3217C43.3784 47.3367 42.1233 47.1125 41.0026 46.5597C39.7127 45.9271 38.9506 45.0506 38.5671 44.6172C37.0231 42.879 34.8366 40.6477 31.7188 37.6195C33.1233 37.6045 35.001 37.5896 36.4005 37.5746C44.8776 37.4999 53.3347 37.4401 61.7769 37.4053" fill="#021D40"/>
<path d="M169.016 47.242C174.883 47.247 180.75 47.2669 186.617 47.3217C188.106 47.3367 189.362 47.1125 190.482 46.5597C191.772 45.9271 192.534 45.0506 192.918 44.6172C194.462 42.879 196.648 40.6477 199.766 37.6195C198.362 37.6045 196.484 37.5896 195.084 37.5746C186.607 37.4999 178.15 37.4401 169.708 37.4053" fill="#021D40"/>
<path d="M169.887 37.4051C164.02 37.4001 158.153 37.3802 152.286 37.3254C150.796 37.3105 149.541 37.5346 148.421 38.0874C147.131 38.72 146.369 39.5966 145.985 40.0299C144.441 41.7681 142.255 43.9994 139.137 47.0277C140.541 47.0426 142.419 47.0576 143.819 47.0725C152.296 47.1472 160.753 47.207 169.195 47.2418" fill="#021D40"/>
<path d="M183.945 31.4676C189.812 31.4726 195.68 31.4925 201.547 31.5473C203.036 31.5622 204.291 31.3381 205.412 30.7853C206.702 30.1527 207.464 29.2761 207.847 28.8428C209.391 27.1046 211.578 24.8732 214.696 21.845C213.291 21.8301 211.413 21.8151 210.014 21.8002C201.537 21.7255 193.08 21.6657 184.638 21.6309" fill="#021D40"/>
<path d="M184.821 21.6317C178.954 21.6267 173.086 21.6068 167.219 21.552C165.73 21.537 164.475 21.7612 163.354 22.314C162.064 22.9465 161.302 23.8231 160.919 24.2564C159.375 25.9947 157.188 28.226 154.07 31.2542C155.475 31.2692 157.353 31.2841 158.752 31.2991C167.229 31.3738 175.686 31.4335 184.128 31.4684" fill="#021D40"/>
<path d="M114.631 44.7078C114.631 44.7078 86.1915 15.3265 81.4996 10.2262C79.846 8.43317 78.1874 7.12324 76.7281 6.18188C74.3971 4.6777 71.6478 3.94554 68.8735 3.96048L0 3.3877C0 3.3877 3.12292 7.38722 6.32054 10.3856C9.31396 13.1947 14.205 13.1101 14.205 13.1101C14.205 13.1101 56.1378 13.2396 63.6387 13.0403C69.8896 12.871 73.7048 16.8655 74.8006 18.2004C75.1891 18.6686 75.5975 19.1168 76.0208 19.5601L115 59.7247L153.979 19.5601C154.398 19.1218 154.811 18.6735 155.199 18.2004C156.3 16.8655 160.115 12.871 166.361 13.0403C173.862 13.2396 215.795 13.1101 215.795 13.1101C215.795 13.1101 220.691 13.1947 223.679 10.3856C226.872 7.38722 230 3.3877 230 3.3877L161.127 3.96048C158.352 3.94554 155.603 4.6777 153.272 6.18188C151.813 7.12324 150.149 8.43317 148.5 10.2262C143.809 15.3265 115.369 44.7078 115.369 44.7078H114.631Z" fill="#021D40"/>
<path d="M171.504 112.113C171.331 112.113 171.181 112.05 171.056 111.925C170.938 111.799 170.879 111.646 170.879 111.465C170.879 111.276 170.938 111.123 171.056 111.005C171.181 110.888 171.331 110.829 171.504 110.829C171.676 110.829 171.822 110.888 171.94 111.005C172.065 111.123 172.128 111.276 172.128 111.465C172.128 111.646 172.065 111.799 171.94 111.925C171.822 112.05 171.676 112.113 171.504 112.113Z" fill="#021D40"/>
<path d="M167.123 112.113C166.511 112.113 165.961 111.979 165.474 111.712C164.994 111.437 164.617 111.064 164.342 110.592C164.067 110.113 163.93 109.567 163.93 108.954C163.93 108.334 164.067 107.788 164.342 107.316C164.617 106.845 164.994 106.475 165.474 106.208C165.961 105.941 166.511 105.808 167.123 105.808C167.65 105.808 168.125 105.91 168.549 106.114C168.974 106.318 169.308 106.625 169.551 107.033L168.927 107.458C168.714 107.143 168.451 106.911 168.137 106.762C167.823 106.613 167.481 106.538 167.112 106.538C166.672 106.538 166.275 106.64 165.921 106.845C165.568 107.041 165.289 107.32 165.085 107.681C164.88 108.043 164.778 108.467 164.778 108.954C164.778 109.441 164.88 109.866 165.085 110.227C165.289 110.588 165.568 110.871 165.921 111.076C166.275 111.272 166.672 111.37 167.112 111.37C167.481 111.37 167.823 111.296 168.137 111.146C168.451 110.997 168.714 110.769 168.927 110.463L169.551 110.887C169.308 111.288 168.974 111.594 168.549 111.806C168.125 112.011 167.65 112.113 167.123 112.113Z" fill="#021D40"/>
<path d="M159.744 105.808C160.247 105.808 160.687 105.906 161.064 106.102C161.449 106.291 161.748 106.582 161.96 106.974C162.18 107.367 162.29 107.862 162.29 108.459V112.054H161.453V108.542C161.453 107.89 161.288 107.399 160.958 107.069C160.636 106.731 160.18 106.562 159.591 106.562C159.151 106.562 158.766 106.652 158.436 106.833C158.114 107.006 157.863 107.261 157.682 107.599C157.509 107.929 157.423 108.33 157.423 108.801V112.054H156.586V105.867H157.387V107.564L157.258 107.245C157.454 106.798 157.768 106.448 158.201 106.197C158.633 105.937 159.147 105.808 159.744 105.808Z" fill="#021D40"/>
<path d="M153.211 112.054V103.805H154.083V112.054H153.211Z" fill="#021D40"/>
<path d="M145.854 112.113C145.343 112.113 144.86 112.042 144.404 111.901C143.949 111.751 143.591 111.567 143.332 111.347L143.709 110.687C143.961 110.875 144.283 111.04 144.676 111.182C145.068 111.315 145.481 111.382 145.913 111.382C146.502 111.382 146.927 111.292 147.186 111.111C147.445 110.922 147.575 110.675 147.575 110.368C147.575 110.141 147.5 109.964 147.351 109.838C147.209 109.705 147.021 109.606 146.785 109.544C146.549 109.473 146.286 109.414 145.995 109.367C145.705 109.32 145.414 109.265 145.123 109.202C144.841 109.139 144.581 109.049 144.346 108.931C144.11 108.805 143.917 108.636 143.768 108.424C143.627 108.212 143.556 107.929 143.556 107.575C143.556 107.238 143.65 106.935 143.839 106.668C144.027 106.401 144.302 106.193 144.664 106.043C145.033 105.886 145.481 105.808 146.007 105.808C146.408 105.808 146.809 105.863 147.209 105.973C147.61 106.075 147.94 106.212 148.199 106.385L147.834 107.057C147.559 106.868 147.264 106.735 146.95 106.656C146.636 106.57 146.322 106.527 146.007 106.527C145.449 106.527 145.037 106.625 144.77 106.821C144.511 107.01 144.381 107.253 144.381 107.552C144.381 107.788 144.452 107.972 144.593 108.106C144.742 108.239 144.935 108.345 145.171 108.424C145.414 108.495 145.677 108.554 145.96 108.601C146.251 108.648 146.538 108.707 146.82 108.777C147.111 108.84 147.374 108.931 147.61 109.049C147.854 109.159 148.046 109.32 148.188 109.532C148.337 109.736 148.411 110.007 148.411 110.345C148.411 110.706 148.309 111.021 148.105 111.288C147.909 111.547 147.618 111.751 147.233 111.901C146.856 112.042 146.396 112.113 145.854 112.113Z" fill="#021D40"/>
<path d="M140.12 112.113C139.507 112.113 138.957 111.979 138.47 111.712C137.99 111.437 137.613 111.064 137.338 110.592C137.063 110.113 136.926 109.567 136.926 108.954C136.926 108.334 137.063 107.788 137.338 107.316C137.613 106.845 137.99 106.475 138.47 106.208C138.957 105.941 139.507 105.808 140.12 105.808C140.646 105.808 141.121 105.91 141.546 106.114C141.97 106.318 142.304 106.625 142.547 107.033L141.923 107.458C141.711 107.143 141.447 106.911 141.133 106.762C140.819 106.613 140.477 106.538 140.108 106.538C139.668 106.538 139.271 106.64 138.917 106.845C138.564 107.041 138.285 107.32 138.081 107.681C137.876 108.043 137.774 108.467 137.774 108.954C137.774 109.441 137.876 109.866 138.081 110.227C138.285 110.588 138.564 110.871 138.917 111.076C139.271 111.272 139.668 111.37 140.108 111.37C140.477 111.37 140.819 111.296 141.133 111.146C141.447 110.997 141.711 110.769 141.923 110.463L142.547 110.887C142.304 111.288 141.97 111.594 141.546 111.806C141.121 112.011 140.646 112.113 140.12 112.113Z" fill="#021D40"/>
<path d="M134.388 112.054V105.867H135.225V112.054H134.388ZM134.812 104.5C134.639 104.5 134.494 104.441 134.376 104.323C134.258 104.205 134.199 104.064 134.199 103.899C134.199 103.734 134.258 103.596 134.376 103.486C134.494 103.368 134.639 103.31 134.812 103.31C134.985 103.31 135.13 103.365 135.248 103.475C135.366 103.585 135.425 103.722 135.425 103.887C135.425 104.06 135.366 104.205 135.248 104.323C135.138 104.441 134.993 104.5 134.812 104.5Z" fill="#021D40"/>
<path d="M131.556 112.113C130.974 112.113 130.526 111.956 130.212 111.642C129.898 111.328 129.741 110.884 129.741 110.31V104.5H130.577V110.263C130.577 110.624 130.668 110.903 130.848 111.1C131.037 111.296 131.304 111.394 131.65 111.394C132.019 111.394 132.326 111.288 132.569 111.076L132.864 111.677C132.699 111.826 132.498 111.936 132.263 112.007C132.035 112.078 131.799 112.113 131.556 112.113ZM128.633 106.562V105.867H132.463V106.562H128.633Z" fill="#021D40"/>
<path d="M125.506 112.113C124.996 112.113 124.513 112.042 124.057 111.901C123.601 111.751 123.244 111.567 122.984 111.347L123.362 110.687C123.613 110.875 123.935 111.04 124.328 111.182C124.721 111.315 125.133 111.382 125.565 111.382C126.155 111.382 126.579 111.292 126.838 111.111C127.097 110.922 127.227 110.675 127.227 110.368C127.227 110.141 127.152 109.964 127.003 109.838C126.862 109.705 126.673 109.606 126.437 109.544C126.202 109.473 125.939 109.414 125.648 109.367C125.357 109.32 125.066 109.265 124.776 109.202C124.493 109.139 124.234 109.049 123.998 108.931C123.762 108.805 123.57 108.636 123.42 108.424C123.279 108.212 123.208 107.929 123.208 107.575C123.208 107.238 123.303 106.935 123.491 106.668C123.68 106.401 123.955 106.193 124.316 106.043C124.685 105.886 125.133 105.808 125.66 105.808C126.06 105.808 126.461 105.863 126.862 105.973C127.262 106.075 127.592 106.212 127.852 106.385L127.486 107.057C127.211 106.868 126.917 106.735 126.602 106.656C126.288 106.57 125.974 106.527 125.66 106.527C125.102 106.527 124.689 106.625 124.422 106.821C124.163 107.01 124.033 107.253 124.033 107.552C124.033 107.788 124.104 107.972 124.245 108.106C124.395 108.239 124.587 108.345 124.823 108.424C125.066 108.495 125.33 108.554 125.612 108.601C125.903 108.648 126.19 108.707 126.473 108.777C126.763 108.84 127.027 108.931 127.262 109.049C127.506 109.159 127.698 109.32 127.84 109.532C127.989 109.736 128.064 110.007 128.064 110.345C128.064 110.706 127.962 111.021 127.757 111.288C127.561 111.547 127.27 111.751 126.885 111.901C126.508 112.042 126.049 112.113 125.506 112.113Z" fill="#021D40"/>
<path d="M120.685 112.054V105.867H121.521V112.054H120.685ZM121.109 104.5C120.936 104.5 120.791 104.441 120.673 104.323C120.555 104.205 120.496 104.064 120.496 103.899C120.496 103.734 120.555 103.596 120.673 103.486C120.791 103.368 120.936 103.31 121.109 103.31C121.282 103.31 121.427 103.365 121.545 103.475C121.663 103.585 121.722 103.722 121.722 103.887C121.722 104.06 121.663 104.205 121.545 104.323C121.435 104.441 121.29 104.5 121.109 104.5Z" fill="#021D40"/>
<path d="M115.253 114.399C114.687 114.399 114.145 114.317 113.626 114.152C113.108 113.987 112.688 113.751 112.365 113.444L112.79 112.808C113.08 113.067 113.438 113.272 113.862 113.421C114.294 113.578 114.75 113.657 115.229 113.657C116.015 113.657 116.592 113.472 116.962 113.103C117.331 112.741 117.516 112.176 117.516 111.406V109.862L117.633 108.801L117.551 107.74V105.867H118.352V111.3C118.352 112.368 118.089 113.15 117.563 113.645C117.044 114.148 116.274 114.399 115.253 114.399ZM115.1 111.818C114.51 111.818 113.98 111.692 113.509 111.441C113.037 111.182 112.664 110.824 112.389 110.368C112.122 109.913 111.988 109.39 111.988 108.801C111.988 108.212 112.122 107.693 112.389 107.245C112.664 106.79 113.037 106.436 113.509 106.185C113.98 105.933 114.51 105.808 115.1 105.808C115.65 105.808 116.145 105.922 116.585 106.149C117.024 106.377 117.374 106.715 117.633 107.163C117.893 107.611 118.022 108.157 118.022 108.801C118.022 109.445 117.893 109.991 117.633 110.439C117.374 110.887 117.024 111.229 116.585 111.465C116.145 111.7 115.65 111.818 115.1 111.818ZM115.182 111.076C115.638 111.076 116.042 110.981 116.396 110.793C116.749 110.596 117.028 110.329 117.233 109.991C117.437 109.646 117.539 109.249 117.539 108.801C117.539 108.353 117.437 107.96 117.233 107.623C117.028 107.285 116.749 107.021 116.396 106.833C116.042 106.637 115.638 106.538 115.182 106.538C114.734 106.538 114.33 106.637 113.968 106.833C113.615 107.021 113.336 107.285 113.131 107.623C112.935 107.96 112.837 108.353 112.837 108.801C112.837 109.249 112.935 109.646 113.131 109.991C113.336 110.329 113.615 110.596 113.968 110.793C114.33 110.981 114.734 111.076 115.182 111.076Z" fill="#021D40"/>
<path d="M107.744 112.113C107.147 112.113 106.609 111.979 106.13 111.712C105.658 111.437 105.285 111.064 105.01 110.592C104.735 110.113 104.598 109.567 104.598 108.954C104.598 108.334 104.735 107.788 105.01 107.316C105.285 106.845 105.658 106.475 106.13 106.208C106.601 105.941 107.139 105.808 107.744 105.808C108.357 105.808 108.899 105.941 109.371 106.208C109.85 106.475 110.223 106.845 110.49 107.316C110.765 107.788 110.903 108.334 110.903 108.954C110.903 109.567 110.765 110.113 110.49 110.592C110.223 111.064 109.85 111.437 109.371 111.712C108.891 111.979 108.349 112.113 107.744 112.113ZM107.744 111.37C108.192 111.37 108.589 111.272 108.935 111.076C109.28 110.871 109.551 110.588 109.748 110.227C109.952 109.858 110.054 109.434 110.054 108.954C110.054 108.467 109.952 108.043 109.748 107.681C109.551 107.32 109.28 107.041 108.935 106.845C108.589 106.64 108.196 106.538 107.756 106.538C107.316 106.538 106.923 106.64 106.578 106.845C106.232 107.041 105.957 107.32 105.753 107.681C105.548 108.043 105.446 108.467 105.446 108.954C105.446 109.434 105.548 109.858 105.753 110.227C105.957 110.588 106.232 110.871 106.578 111.076C106.923 111.272 107.312 111.37 107.744 111.37Z" fill="#021D40"/>
<path d="M98.5547 112.054V103.805H99.4268V111.3H104.047V112.054H98.5547Z" fill="#021D40"/>
<path d="M92.125 112.054V103.31H92.9617V112.054H92.125Z" fill="#021D40"/>
<path d="M89.0521 112.054V110.687L89.0168 110.463V108.176C89.0168 107.65 88.8675 107.245 88.5689 106.963C88.2782 106.68 87.8422 106.538 87.2608 106.538C86.8601 106.538 86.479 106.605 86.1176 106.739C85.7562 106.872 85.4498 107.049 85.1984 107.269L84.8212 106.644C85.1355 106.377 85.5126 106.173 85.9526 106.032C86.3926 105.882 86.8562 105.808 87.3433 105.808C88.1447 105.808 88.7614 106.008 89.1935 106.409C89.6335 106.802 89.8535 107.403 89.8535 108.212V112.054H89.0521ZM86.919 112.113C86.4555 112.113 86.0508 112.038 85.7051 111.889C85.3673 111.732 85.108 111.52 84.9273 111.252C84.7466 110.977 84.6562 110.663 84.6562 110.31C84.6562 109.987 84.7309 109.697 84.8802 109.437C85.0373 109.17 85.2887 108.958 85.6344 108.801C85.988 108.636 86.4594 108.554 87.0486 108.554H89.1818V109.178H87.0722C86.4751 109.178 86.0587 109.284 85.823 109.496C85.5951 109.709 85.4812 109.972 85.4812 110.286C85.4812 110.64 85.6187 110.922 85.8937 111.135C86.1687 111.347 86.5537 111.453 87.0486 111.453C87.5201 111.453 87.9247 111.347 88.2625 111.135C88.6082 110.915 88.8596 110.6 89.0168 110.192L89.2053 110.769C89.0482 111.178 88.7732 111.504 88.3804 111.747C87.9954 111.991 87.5083 112.113 86.919 112.113Z" fill="#021D40"/>
<path d="M80.4125 112.113C79.8704 112.113 79.3833 111.991 78.9512 111.748C78.5191 111.496 78.1773 111.135 77.9259 110.664C77.6744 110.192 77.5487 109.623 77.5487 108.955C77.5487 108.279 77.6744 107.709 77.9259 107.246C78.1851 106.774 78.5308 106.417 78.963 106.173C79.3951 105.93 79.8783 105.808 80.4125 105.808C81.0018 105.808 81.5282 105.942 81.9918 106.209C82.4632 106.468 82.8324 106.833 83.0996 107.305C83.3667 107.776 83.5003 108.326 83.5003 108.955C83.5003 109.575 83.3667 110.125 83.0996 110.605C82.8324 111.076 82.4632 111.445 81.9918 111.712C81.5282 111.98 81.0018 112.113 80.4125 112.113ZM77.2188 112.054V103.31H78.0555V107.694L77.9376 108.943L78.0201 110.192V112.054H77.2188ZM80.3536 111.371C80.7936 111.371 81.1864 111.272 81.5321 111.076C81.8778 110.872 82.1528 110.589 82.3571 110.227C82.5614 109.858 82.6635 109.434 82.6635 108.955C82.6635 108.468 82.5614 108.043 82.3571 107.682C82.1528 107.32 81.8778 107.042 81.5321 106.845C81.1864 106.641 80.7936 106.539 80.3536 106.539C79.9136 106.539 79.5169 106.641 79.1633 106.845C78.8176 107.042 78.5426 107.32 78.3383 107.682C78.1419 108.043 78.0437 108.468 78.0437 108.955C78.0437 109.434 78.1419 109.858 78.3383 110.227C78.5426 110.589 78.8176 110.872 79.1633 111.076C79.5169 111.272 79.9136 111.371 80.3536 111.371Z" fill="#021D40"/>
<path d="M72.3576 112.113C71.7605 112.113 71.2223 111.979 70.743 111.712C70.2716 111.437 69.8984 111.064 69.6234 110.592C69.3484 110.113 69.2109 109.567 69.2109 108.954C69.2109 108.334 69.3484 107.788 69.6234 107.316C69.8984 106.845 70.2716 106.475 70.743 106.208C71.2144 105.941 71.7526 105.808 72.3576 105.808C72.9704 105.808 73.5125 105.941 73.9839 106.208C74.4632 106.475 74.8364 106.845 75.1035 107.316C75.3785 107.788 75.516 108.334 75.516 108.954C75.516 109.567 75.3785 110.113 75.1035 110.592C74.8364 111.064 74.4632 111.437 73.9839 111.712C73.5047 111.979 72.9626 112.113 72.3576 112.113ZM72.3576 111.37C72.8054 111.37 73.2022 111.272 73.5479 111.076C73.8936 110.871 74.1646 110.588 74.3611 110.227C74.5653 109.858 74.6675 109.434 74.6675 108.954C74.6675 108.467 74.5653 108.043 74.3611 107.681C74.1646 107.32 73.8936 107.041 73.5479 106.845C73.2022 106.64 72.8093 106.538 72.3694 106.538C71.9294 106.538 71.5365 106.64 71.1908 106.845C70.8452 107.041 70.5702 107.32 70.3659 107.681C70.1616 108.043 70.0595 108.467 70.0595 108.954C70.0595 109.434 70.1616 109.858 70.3659 110.227C70.5702 110.588 70.8452 110.871 71.1908 111.076C71.5365 111.272 71.9255 111.37 72.3576 111.37Z" fill="#021D40"/>
<path d="M66.668 112.054V103.31H67.5047V112.054H66.668Z" fill="#021D40"/>
<path d="M61.3487 112.125C60.7202 112.125 60.1388 112.023 59.6045 111.819C59.0781 111.606 58.6185 111.312 58.2257 110.935C57.8407 110.558 57.5382 110.114 57.3182 109.603C57.1061 109.092 57 108.534 57 107.929C57 107.324 57.1061 106.767 57.3182 106.256C57.5382 105.745 57.8446 105.301 58.2374 104.924C58.6303 104.547 59.0899 104.256 59.6163 104.052C60.1506 103.84 60.732 103.734 61.3605 103.734C61.9891 103.734 62.5626 103.832 63.0812 104.029C63.6076 104.225 64.0554 104.523 64.4247 104.924L63.8825 105.478C63.5368 105.132 63.1558 104.885 62.7394 104.736C62.323 104.586 61.8751 104.512 61.3959 104.512C60.8852 104.512 60.4138 104.598 59.9817 104.771C59.5574 104.936 59.1842 105.176 58.8621 105.49C58.5478 105.796 58.3003 106.158 58.1196 106.574C57.9467 106.983 57.8603 107.434 57.8603 107.929C57.8603 108.417 57.9467 108.868 58.1196 109.285C58.3003 109.701 58.5478 110.066 58.8621 110.381C59.1842 110.687 59.5574 110.927 59.9817 111.1C60.4138 111.265 60.8813 111.347 61.3841 111.347C61.8555 111.347 62.2994 111.276 62.7158 111.135C63.1401 110.994 63.529 110.754 63.8825 110.416L64.3775 111.076C63.9847 111.422 63.5251 111.685 62.9987 111.866C62.4723 112.039 61.9223 112.125 61.3487 112.125ZM63.5408 110.97V107.929H64.3775V111.076L63.5408 110.97Z" fill="#021D40"/>
</svg>
