<svg width="251" height="140" viewBox="0 0 251 140" fill="none" xmlns="http://www.w3.org/2000/svg">
<g filter="url(#filter0_d_183_1503)">
<path d="M153.32 85.7423L161.774 94.4212L170.228 85.7423H179.352L165.588 100.001H157.959L144.195 85.7423H153.32Z" fill="#F3F5F9"/>
<path d="M143.576 90.3401C143.576 91.27 143.404 92.0277 143.06 92.6131C142.751 93.1642 142.287 93.5947 141.669 93.9046C141.05 94.2146 140.294 94.4385 139.4 94.5762C138.507 94.6795 137.476 94.7312 136.307 94.7312L145.638 100.001H134.555L125.018 94.7312H117.492V100.001H109.141V85.7423H136.771C138.971 85.7423 140.655 86.1039 141.823 86.8272C142.992 87.516 143.576 88.6869 143.576 90.3401ZM134.606 90.2368C134.606 89.8235 134.4 89.4791 133.988 89.2036C133.61 88.928 132.871 88.7214 131.771 88.5836H117.492V91.7866H131.874C132.905 91.7866 133.61 91.6832 133.988 91.4766C134.4 91.2355 134.606 90.8222 134.606 90.2368Z" fill="#F3F5F9"/>
<path d="M80.0227 85.7423L88.4769 94.4213L96.9311 85.7423H106.055L92.2916 100.001H84.6622L70.8984 85.7423H80.0227Z" fill="#F3F5F9"/>
<path d="M136.501 17.1898C132.745 17.9515 129.128 18.5609 125.674 19.0561H124.905C121.45 18.5609 117.833 17.9468 114.078 17.1898C109.349 16.2329 104.907 15.1474 100.77 14C102.874 16.2757 104.482 18.0134 106.205 19.8749C115.438 29.8585 119.298 33.4816 120.606 34.7289C122.629 36.6523 124.294 38.1663 125.287 39.0518C126.28 38.1615 127.945 36.6523 129.968 34.7289C131.28 33.4816 135.136 29.8585 144.369 19.8749C146.092 18.0134 147.7 16.2757 149.804 14C145.672 15.1474 141.23 16.2329 136.501 17.1898Z" fill="#F3F5F9"/>
<path d="M60.1172 34.3763C65.7293 34.3715 71.3414 34.3524 76.9535 34.2999C78.3779 34.2855 79.5785 34.5004 80.6504 35.0303C81.8843 35.6367 82.6132 36.4769 82.98 36.8923C84.4569 38.5585 86.5483 40.6974 89.5306 43.6002C88.1872 43.6145 86.3911 43.6289 85.0524 43.6432C76.9439 43.7148 68.8545 43.7721 60.7794 43.8055" fill="#F3F5F9"/>
<path d="M60.9564 43.8055C55.3443 43.8102 49.7322 43.8293 44.1201 43.8819C42.6957 43.8962 41.4951 43.6813 40.4232 43.1514C39.1893 42.5451 38.4604 41.7048 38.0936 41.2894C36.6167 39.6232 34.5253 37.4843 31.543 34.5815C32.8864 34.5672 34.6825 34.5529 36.0212 34.5385C44.1297 34.4669 52.2191 34.4096 60.2942 34.3762" fill="#F3F5F9"/>
<path d="M74.418 49.4968C80.0301 49.4921 85.6421 49.473 91.2542 49.4205C92.6787 49.4061 93.8792 49.621 94.9512 50.1509C96.1851 50.7573 96.914 51.5975 97.2808 52.0129C98.7577 53.6791 100.849 55.818 103.831 58.7208C102.488 58.7351 100.692 58.7494 99.3532 58.7638C91.2447 58.8354 83.1553 58.8927 75.0802 58.9261" fill="#F3F5F9"/>
<path d="M75.2533 58.9263C69.6412 58.931 64.0291 58.9501 58.417 59.0026C56.9926 59.017 55.792 58.8021 54.7201 58.2722C53.4862 57.6658 52.7573 56.8256 52.3905 56.4102C50.9136 54.744 48.8222 52.6051 45.8398 49.7023C47.1833 49.688 48.9794 49.6737 50.3181 49.6593C58.4266 49.5877 66.516 49.5304 74.5911 49.497" fill="#F3F5F9"/>
<path d="M177.168 58.9263C182.78 58.931 188.392 58.9501 194.004 59.0026C195.429 59.017 196.629 58.8021 197.701 58.2722C198.935 57.6658 199.664 56.8256 200.031 56.4102C201.508 54.744 203.599 52.6051 206.581 49.7023C205.238 49.688 203.442 49.6737 202.103 49.6593C193.995 49.5877 185.905 49.5304 177.83 49.497" fill="#F3F5F9"/>
<path d="M178.003 49.4968C172.391 49.4921 166.779 49.473 161.167 49.4205C159.743 49.4061 158.542 49.621 157.47 50.1509C156.236 50.7573 155.507 51.5975 155.14 52.0129C153.664 53.6791 151.572 55.818 148.59 58.7208C149.933 58.7351 151.729 58.7494 153.068 58.7638C161.177 58.8354 169.266 58.8927 177.341 58.9261" fill="#F3F5F9"/>
<path d="M191.445 43.8057C197.057 43.8104 202.669 43.8295 208.282 43.882C209.706 43.8964 210.907 43.6815 211.978 43.1516C213.212 42.5452 213.941 41.705 214.308 41.2896C215.785 39.6234 217.876 37.4845 220.859 34.5817C219.515 34.5674 217.719 34.5531 216.381 34.5387C208.272 34.4671 200.183 34.4098 192.108 34.3764" fill="#F3F5F9"/>
<path d="M192.285 34.3772C186.672 34.3724 181.06 34.3533 175.448 34.3008C174.024 34.2865 172.823 34.5013 171.751 35.0312C170.517 35.6376 169.789 36.4779 169.422 36.8932C167.945 38.5595 165.853 40.6983 162.871 43.6011C164.215 43.6154 166.011 43.6298 167.349 43.6441C175.458 43.7157 183.547 43.773 191.622 43.8064" fill="#F3F5F9"/>
<path d="M125.147 56.497C125.147 56.497 97.944 28.3329 93.4562 23.4439C91.8745 21.7251 90.288 20.4695 88.8921 19.5671C86.6625 18.1252 84.0326 17.4234 81.379 17.4377L15.5 16.8887C15.5 16.8887 18.4871 20.7225 21.5457 23.5967C24.409 26.2894 29.0874 26.2083 29.0874 26.2083C29.0874 26.2083 69.197 26.3324 76.3718 26.1414C82.3509 25.9791 86.0002 29.8082 87.0484 31.0877C87.42 31.5365 87.8106 31.9662 88.2156 32.3911L125.5 70.8918L162.784 32.3911C163.185 31.971 163.58 31.5413 163.952 31.0877C165.005 29.8082 168.654 25.9791 174.628 26.1414C181.803 26.3324 221.913 26.2083 221.913 26.2083C221.913 26.2083 226.596 26.2894 229.454 23.5967C232.508 20.7225 235.5 16.8887 235.5 16.8887L169.621 17.4377C166.967 17.4234 164.338 18.1252 162.108 19.5671C160.712 20.4695 159.121 21.7251 157.544 23.4439C153.056 28.3329 125.853 56.497 125.853 56.497H125.147Z" fill="#F3F5F9"/>
<path d="M179.551 121.11C179.385 121.11 179.242 121.05 179.122 120.929C179.009 120.809 178.953 120.662 178.953 120.489C178.953 120.308 179.009 120.161 179.122 120.048C179.242 119.935 179.385 119.879 179.551 119.879C179.716 119.879 179.855 119.935 179.968 120.048C180.088 120.161 180.148 120.308 180.148 120.489C180.148 120.662 180.088 120.809 179.968 120.929C179.855 121.05 179.716 121.11 179.551 121.11Z" fill="#F3F5F9"/>
<path d="M175.356 121.11C174.77 121.11 174.243 120.982 173.778 120.726C173.319 120.462 172.958 120.105 172.695 119.653C172.432 119.193 172.301 118.67 172.301 118.082C172.301 117.488 172.432 116.964 172.695 116.512C172.958 116.06 173.319 115.706 173.778 115.45C174.243 115.194 174.77 115.066 175.356 115.066C175.859 115.066 176.314 115.164 176.72 115.36C177.126 115.556 177.445 115.849 177.678 116.241L177.08 116.648C176.878 116.347 176.626 116.124 176.325 115.981C176.025 115.838 175.698 115.767 175.344 115.767C174.924 115.767 174.544 115.865 174.206 116.06C173.868 116.249 173.601 116.516 173.406 116.862C173.21 117.209 173.112 117.616 173.112 118.082C173.112 118.549 173.21 118.956 173.406 119.303C173.601 119.649 173.868 119.92 174.206 120.116C174.544 120.304 174.924 120.398 175.344 120.398C175.698 120.398 176.025 120.327 176.325 120.184C176.626 120.041 176.878 119.822 177.08 119.528L177.678 119.935C177.445 120.319 177.126 120.613 176.72 120.816C176.314 121.012 175.859 121.11 175.356 121.11Z" fill="#F3F5F9"/>
<path d="M168.302 115.066C168.783 115.066 169.204 115.16 169.565 115.349C169.933 115.529 170.219 115.808 170.422 116.185C170.632 116.561 170.737 117.036 170.737 117.608V121.054H169.937V117.687C169.937 117.062 169.779 116.591 169.463 116.275C169.155 115.951 168.719 115.789 168.156 115.789C167.735 115.789 167.367 115.876 167.051 116.049C166.743 116.215 166.502 116.459 166.33 116.783C166.164 117.1 166.082 117.484 166.082 117.936V121.054H165.281V115.123H166.048V116.749L165.924 116.444C166.112 116.015 166.412 115.68 166.826 115.439C167.239 115.19 167.731 115.066 168.302 115.066Z" fill="#F3F5F9"/>
<path d="M162.051 121.054V113.146H162.885V121.054H162.051Z" fill="#F3F5F9"/>
<path d="M155.014 121.11C154.525 121.11 154.063 121.042 153.627 120.907C153.192 120.764 152.85 120.587 152.602 120.376L152.962 119.743C153.203 119.924 153.511 120.082 153.887 120.218C154.262 120.346 154.657 120.41 155.07 120.41C155.634 120.41 156.04 120.323 156.288 120.15C156.536 119.969 156.66 119.732 156.66 119.438C156.66 119.22 156.588 119.05 156.446 118.93C156.31 118.802 156.13 118.708 155.904 118.647C155.679 118.58 155.427 118.523 155.149 118.478C154.871 118.433 154.593 118.38 154.315 118.32C154.044 118.259 153.796 118.173 153.571 118.06C153.346 117.939 153.161 117.777 153.019 117.574C152.883 117.371 152.816 117.1 152.816 116.761C152.816 116.437 152.906 116.147 153.086 115.891C153.267 115.635 153.53 115.435 153.875 115.292C154.229 115.142 154.657 115.066 155.16 115.066C155.544 115.066 155.927 115.119 156.31 115.224C156.694 115.322 157.009 115.454 157.257 115.62L156.908 116.264C156.645 116.083 156.363 115.955 156.062 115.88C155.762 115.797 155.461 115.755 155.16 115.755C154.627 115.755 154.232 115.849 153.977 116.038C153.729 116.218 153.605 116.452 153.605 116.738C153.605 116.964 153.672 117.141 153.808 117.269C153.951 117.397 154.135 117.499 154.36 117.574C154.593 117.642 154.845 117.698 155.115 117.744C155.393 117.789 155.668 117.845 155.938 117.913C156.216 117.973 156.468 118.06 156.694 118.173C156.927 118.278 157.111 118.433 157.246 118.636C157.389 118.832 157.46 119.092 157.46 119.416C157.46 119.762 157.362 120.063 157.167 120.319C156.979 120.568 156.701 120.764 156.333 120.907C155.972 121.042 155.532 121.11 155.014 121.11Z" fill="#F3F5F9"/>
<path d="M149.531 121.11C148.945 121.11 148.419 120.982 147.953 120.726C147.495 120.462 147.134 120.105 146.871 119.653C146.608 119.193 146.477 118.67 146.477 118.082C146.477 117.488 146.608 116.964 146.871 116.512C147.134 116.06 147.495 115.706 147.953 115.45C148.419 115.194 148.945 115.066 149.531 115.066C150.035 115.066 150.49 115.164 150.895 115.36C151.301 115.556 151.621 115.849 151.854 116.241L151.256 116.648C151.053 116.347 150.802 116.124 150.501 115.981C150.2 115.838 149.873 115.767 149.52 115.767C149.099 115.767 148.72 115.865 148.382 116.06C148.043 116.249 147.777 116.516 147.581 116.862C147.386 117.209 147.288 117.616 147.288 118.082C147.288 118.549 147.386 118.956 147.581 119.303C147.777 119.649 148.043 119.92 148.382 120.116C148.72 120.304 149.099 120.398 149.52 120.398C149.873 120.398 150.2 120.327 150.501 120.184C150.802 120.041 151.053 119.822 151.256 119.528L151.854 119.935C151.621 120.319 151.301 120.613 150.895 120.816C150.49 121.012 150.035 121.11 149.531 121.11Z" fill="#F3F5F9"/>
<path d="M144.048 121.054V115.123H144.848V121.054H144.048ZM144.453 113.812C144.288 113.812 144.149 113.756 144.036 113.643C143.924 113.53 143.867 113.394 143.867 113.236C143.867 113.078 143.924 112.946 144.036 112.841C144.149 112.728 144.288 112.671 144.453 112.671C144.619 112.671 144.758 112.724 144.87 112.83C144.983 112.935 145.04 113.067 145.04 113.225C145.04 113.391 144.983 113.53 144.87 113.643C144.765 113.756 144.626 113.812 144.453 113.812Z" fill="#F3F5F9"/>
<path d="M141.339 121.11C140.783 121.11 140.354 120.96 140.054 120.659C139.753 120.357 139.603 119.932 139.603 119.382V113.813H140.403V119.337C140.403 119.683 140.489 119.951 140.662 120.139C140.843 120.327 141.098 120.421 141.429 120.421C141.782 120.421 142.075 120.32 142.308 120.116L142.59 120.692C142.432 120.836 142.24 120.941 142.015 121.009C141.797 121.077 141.572 121.11 141.339 121.11ZM138.543 115.79V115.123H142.207V115.79H138.543Z" fill="#F3F5F9"/>
<path d="M135.553 121.11C135.065 121.11 134.602 121.042 134.166 120.907C133.731 120.764 133.389 120.587 133.141 120.376L133.501 119.743C133.742 119.924 134.05 120.082 134.426 120.218C134.801 120.346 135.196 120.41 135.609 120.41C136.173 120.41 136.579 120.323 136.827 120.15C137.075 119.969 137.199 119.732 137.199 119.438C137.199 119.22 137.127 119.05 136.985 118.93C136.849 118.802 136.669 118.708 136.444 118.647C136.218 118.58 135.966 118.523 135.688 118.478C135.41 118.433 135.132 118.38 134.854 118.32C134.584 118.259 134.336 118.173 134.11 118.06C133.885 117.939 133.701 117.777 133.558 117.574C133.422 117.371 133.355 117.1 133.355 116.761C133.355 116.437 133.445 116.147 133.625 115.891C133.806 115.635 134.069 115.435 134.414 115.292C134.768 115.142 135.196 115.066 135.7 115.066C136.083 115.066 136.466 115.119 136.849 115.224C137.233 115.322 137.548 115.454 137.796 115.62L137.447 116.264C137.184 116.083 136.902 115.955 136.601 115.88C136.301 115.797 136 115.755 135.7 115.755C135.166 115.755 134.771 115.849 134.516 116.038C134.268 116.218 134.144 116.452 134.144 116.738C134.144 116.964 134.212 117.141 134.347 117.269C134.49 117.397 134.674 117.499 134.899 117.574C135.132 117.642 135.384 117.698 135.654 117.744C135.933 117.789 136.207 117.845 136.477 117.913C136.755 117.973 137.007 118.06 137.233 118.173C137.466 118.278 137.65 118.433 137.785 118.636C137.928 118.832 137.999 119.092 137.999 119.416C137.999 119.762 137.901 120.063 137.706 120.319C137.518 120.568 137.24 120.764 136.872 120.907C136.511 121.042 136.072 121.11 135.553 121.11Z" fill="#F3F5F9"/>
<path d="M130.938 121.054V115.123H131.739V121.054H130.938ZM131.344 113.812C131.179 113.812 131.04 113.756 130.927 113.643C130.814 113.53 130.758 113.394 130.758 113.236C130.758 113.078 130.814 112.946 130.927 112.841C131.04 112.728 131.179 112.671 131.344 112.671C131.509 112.671 131.648 112.724 131.761 112.83C131.874 112.935 131.93 113.067 131.93 113.225C131.93 113.391 131.874 113.53 131.761 113.643C131.656 113.756 131.517 113.812 131.344 113.812Z" fill="#F3F5F9"/>
<path d="M125.744 123.302C125.203 123.302 124.684 123.223 124.188 123.064C123.692 122.906 123.29 122.68 122.982 122.387L123.388 121.777C123.666 122.025 124.008 122.221 124.413 122.364C124.827 122.515 125.263 122.59 125.721 122.59C126.473 122.59 127.025 122.413 127.378 122.059C127.731 121.713 127.908 121.17 127.908 120.432V118.952L128.021 117.936L127.942 116.919V115.123H128.708V120.331C128.708 121.355 128.457 122.104 127.953 122.579C127.457 123.061 126.721 123.302 125.744 123.302ZM125.597 120.828C125.033 120.828 124.526 120.707 124.075 120.466C123.624 120.218 123.267 119.875 123.004 119.438C122.749 119.001 122.621 118.5 122.621 117.936C122.621 117.371 122.749 116.874 123.004 116.444C123.267 116.008 123.624 115.669 124.075 115.428C124.526 115.187 125.033 115.066 125.597 115.066C126.123 115.066 126.597 115.175 127.017 115.394C127.438 115.612 127.773 115.936 128.021 116.365C128.269 116.795 128.393 117.318 128.393 117.936C128.393 118.553 128.269 119.077 128.021 119.506C127.773 119.935 127.438 120.263 127.017 120.489C126.597 120.715 126.123 120.828 125.597 120.828ZM125.676 120.116C126.112 120.116 126.499 120.026 126.837 119.845C127.175 119.657 127.442 119.4 127.637 119.077C127.833 118.745 127.931 118.365 127.931 117.936C127.931 117.506 127.833 117.13 127.637 116.806C127.442 116.482 127.175 116.23 126.837 116.049C126.499 115.861 126.112 115.767 125.676 115.767C125.248 115.767 124.861 115.861 124.515 116.049C124.177 116.23 123.91 116.482 123.715 116.806C123.527 117.13 123.433 117.506 123.433 117.936C123.433 118.365 123.527 118.745 123.715 119.077C123.91 119.4 124.177 119.657 124.515 119.845C124.861 120.026 125.248 120.116 125.676 120.116Z" fill="#F3F5F9"/>
<path d="M118.565 121.11C117.993 121.11 117.479 120.982 117.02 120.726C116.569 120.462 116.212 120.105 115.949 119.653C115.686 119.193 115.555 118.67 115.555 118.082C115.555 117.488 115.686 116.964 115.949 116.512C116.212 116.06 116.569 115.706 117.02 115.45C117.471 115.194 117.986 115.066 118.565 115.066C119.151 115.066 119.669 115.194 120.12 115.45C120.579 115.706 120.936 116.06 121.191 116.512C121.454 116.964 121.586 117.488 121.586 118.082C121.586 118.67 121.454 119.193 121.191 119.653C120.936 120.105 120.579 120.462 120.12 120.726C119.662 120.982 119.143 121.11 118.565 121.11ZM118.565 120.398C118.993 120.398 119.372 120.304 119.703 120.116C120.034 119.92 120.293 119.649 120.481 119.303C120.676 118.949 120.774 118.542 120.774 118.082C120.774 117.616 120.676 117.209 120.481 116.862C120.293 116.516 120.034 116.249 119.703 116.06C119.372 115.865 118.997 115.767 118.576 115.767C118.155 115.767 117.779 115.865 117.449 116.06C117.118 116.249 116.855 116.516 116.659 116.862C116.464 117.209 116.366 117.616 116.366 118.082C116.366 118.542 116.464 118.949 116.659 119.303C116.855 119.649 117.118 119.92 117.449 120.116C117.779 120.304 118.151 120.398 118.565 120.398Z" fill="#F3F5F9"/>
<path d="M109.77 121.054V113.146H110.604V120.331H115.023V121.054H109.77Z" fill="#F3F5F9"/>
<path d="M103.621 121.054V112.671H104.421V121.054H103.621Z" fill="#F3F5F9"/>
<path d="M100.681 121.054V119.743L100.647 119.528V117.337C100.647 116.832 100.505 116.444 100.219 116.173C99.9411 115.902 99.524 115.767 98.9678 115.767C98.5846 115.767 98.2201 115.831 97.8744 115.959C97.5287 116.087 97.2356 116.256 96.9951 116.467L96.6344 115.868C96.935 115.612 97.2957 115.416 97.7166 115.281C98.1374 115.138 98.5808 115.066 99.0468 115.066C99.8133 115.066 100.403 115.258 100.817 115.642C101.237 116.019 101.448 116.595 101.448 117.371V121.054H100.681ZM98.6409 121.11C98.1975 121.11 97.8105 121.039 97.4798 120.895C97.1567 120.745 96.9087 120.541 96.7358 120.285C96.563 120.022 96.4766 119.721 96.4766 119.382C96.4766 119.073 96.548 118.794 96.6907 118.546C96.841 118.29 97.0815 118.086 97.4122 117.936C97.7504 117.777 98.2013 117.698 98.7649 117.698H100.805V118.297H98.7875C98.2163 118.297 97.818 118.399 97.5926 118.602C97.3746 118.805 97.2657 119.058 97.2657 119.359C97.2657 119.698 97.3972 119.969 97.6602 120.172C97.9232 120.376 98.2915 120.477 98.7649 120.477C99.2158 120.477 99.6029 120.376 99.926 120.172C100.257 119.962 100.497 119.66 100.647 119.269L100.828 119.822C100.678 120.214 100.415 120.526 100.039 120.76C99.6705 120.993 99.2046 121.11 98.6409 121.11Z" fill="#F3F5F9"/>
<path d="M92.4182 121.11C91.8997 121.11 91.4337 120.994 91.0204 120.76C90.607 120.519 90.2801 120.173 90.0396 119.721C89.7992 119.269 89.6789 118.723 89.6789 118.083C89.6789 117.435 89.7992 116.889 90.0396 116.445C90.2876 115.993 90.6183 115.65 91.0317 115.417C91.445 115.183 91.9072 115.066 92.4182 115.066C92.9818 115.066 93.4854 115.194 93.9288 115.45C94.3797 115.699 94.7329 116.049 94.9884 116.501C95.2439 116.953 95.3717 117.48 95.3717 118.083C95.3717 118.678 95.2439 119.205 94.9884 119.664C94.7329 120.116 94.3797 120.47 93.9288 120.726C93.4854 120.982 92.9818 121.11 92.4182 121.11ZM89.3633 121.054V112.671H90.1636V116.874L90.0509 118.071L90.1298 119.269V121.054H89.3633ZM92.3618 120.399C92.7827 120.399 93.1585 120.304 93.4891 120.116C93.8198 119.92 94.0828 119.649 94.2782 119.303C94.4736 118.949 94.5713 118.542 94.5713 118.083C94.5713 117.616 94.4736 117.209 94.2782 116.863C94.0828 116.516 93.8198 116.249 93.4891 116.061C93.1585 115.865 92.7827 115.767 92.3618 115.767C91.941 115.767 91.5615 115.865 91.2233 116.061C90.8926 116.249 90.6296 116.516 90.4342 116.863C90.2463 117.209 90.1524 117.616 90.1524 118.083C90.1524 118.542 90.2463 118.949 90.4342 119.303C90.6296 119.649 90.8926 119.92 91.2233 120.116C91.5615 120.304 91.941 120.399 92.3618 120.399Z" fill="#F3F5F9"/>
<path d="M84.713 121.11C84.1418 121.11 83.627 120.982 83.1686 120.726C82.7177 120.462 82.3607 120.105 82.0977 119.653C81.8346 119.193 81.7031 118.67 81.7031 118.082C81.7031 117.488 81.8346 116.964 82.0977 116.512C82.3607 116.06 82.7177 115.706 83.1686 115.45C83.6195 115.194 84.1343 115.066 84.713 115.066C85.2991 115.066 85.8177 115.194 86.2686 115.45C86.727 115.706 87.084 116.06 87.3395 116.512C87.6025 116.964 87.7341 117.488 87.7341 118.082C87.7341 118.67 87.6025 119.193 87.3395 119.653C87.084 120.105 86.727 120.462 86.2686 120.726C85.8102 120.982 85.2916 121.11 84.713 121.11ZM84.713 120.398C85.1413 120.398 85.5208 120.304 85.8515 120.116C86.1822 119.92 86.4415 119.649 86.6293 119.303C86.8247 118.949 86.9224 118.542 86.9224 118.082C86.9224 117.616 86.8247 117.209 86.6293 116.862C86.4415 116.516 86.1822 116.249 85.8515 116.06C85.5208 115.865 85.1451 115.767 84.7242 115.767C84.3034 115.767 83.9276 115.865 83.597 116.06C83.2663 116.249 83.0033 116.516 82.8079 116.862C82.6125 117.209 82.5148 117.616 82.5148 118.082C82.5148 118.542 82.6125 118.949 82.8079 119.303C83.0033 119.649 83.2663 119.92 83.597 120.116C83.9276 120.304 84.2996 120.398 84.713 120.398Z" fill="#F3F5F9"/>
<path d="M79.2734 121.054V112.671H80.0738V121.054H79.2734Z" fill="#F3F5F9"/>
<path d="M74.1831 121.122C73.5819 121.122 73.0258 121.024 72.5147 120.828C72.0112 120.625 71.5716 120.342 71.1958 119.981C70.8276 119.619 70.5382 119.194 70.3278 118.704C70.1249 118.215 70.0234 117.68 70.0234 117.1C70.0234 116.52 70.1249 115.985 70.3278 115.496C70.5382 115.006 70.8313 114.581 71.2071 114.219C71.5828 113.858 72.0225 113.579 72.526 113.383C73.037 113.18 73.5932 113.078 74.1944 113.078C74.7956 113.078 75.3442 113.173 75.8402 113.361C76.3437 113.549 76.7721 113.835 77.1253 114.219L76.6067 114.75C76.2761 114.419 75.9116 114.182 75.5133 114.039C75.115 113.896 74.6866 113.824 74.2282 113.824C73.7397 113.824 73.2888 113.907 72.8755 114.073C72.4696 114.231 72.1127 114.46 71.8045 114.762C71.5039 115.055 71.2672 115.402 71.0944 115.801C70.929 116.193 70.8464 116.626 70.8464 117.1C70.8464 117.567 70.929 118 71.0944 118.399C71.2672 118.798 71.5039 119.149 71.8045 119.45C72.1127 119.744 72.4696 119.973 72.8755 120.139C73.2888 120.297 73.7359 120.376 74.2169 120.376C74.6678 120.376 75.0924 120.308 75.4907 120.173C75.8966 120.037 76.2686 119.808 76.6067 119.484L77.0802 120.116C76.7044 120.448 76.2648 120.7 75.7613 120.873C75.2578 121.039 74.7317 121.122 74.1831 121.122ZM76.2798 120.015V117.1H77.0802V120.116L76.2798 120.015Z" fill="#F3F5F9"/>
</g>
<defs>
<filter id="filter0_d_183_1503" x="0.5" y="0" width="250" height="140.595" filterUnits="userSpaceOnUse" color-interpolation-filters="sRGB">
<feFlood flood-opacity="0" result="BackgroundImageFix"/>
<feColorMatrix in="SourceAlpha" type="matrix" values="0 0 0 0 0 0 0 0 0 0 0 0 0 0 0 0 0 0 127 0" result="hardAlpha"/>
<feOffset dy="1"/>
<feGaussianBlur stdDeviation="7.5"/>
<feComposite in2="hardAlpha" operator="out"/>
<feColorMatrix type="matrix" values="0 0 0 0 0 0 0 0 0 0 0 0 0 0 0 0 0 0 0.15 0"/>
<feBlend mode="normal" in2="BackgroundImageFix" result="effect1_dropShadow_183_1503"/>
<feBlend mode="normal" in="SourceGraphic" in2="effect1_dropShadow_183_1503" result="shape"/>
</filter>
</defs>
</svg>
