<svg width="20" height="14" viewBox="0 0 20 14" fill="none" xmlns="http://www.w3.org/2000/svg">
<path d="M2.00004 0.260986C1.56407 0.260986 1.16388 0.400797 0.836022 0.635301L0.843697 0.643144L9.59366 8.84859C9.78706 9.03003 10.2127 9.03003 10.4061 8.84859L19.1561 0.643144L19.1637 0.635301C18.8359 0.400617 18.4357 0.260986 17.9997 0.260986H1.9998H2.00004ZM0.195312 1.3998C0.0716721 1.65974 0 1.94983 0 2.2578V11.7424C0 12.8487 0.89196 13.7392 2.00004 13.7392H18C19.108 13.7392 20 12.8487 20 11.7424V2.2578C20 1.94979 19.9283 1.65974 19.8047 1.3998L11.094 9.57409C10.4821 10.1478 9.51845 10.1476 8.90652 9.57409L0.195312 1.3998Z" fill="white"/>
</svg>
