<svg width="33" height="33" viewBox="0 0 33 33" fill="none" xmlns="http://www.w3.org/2000/svg">
<path d="M16.5002 0.88064C20.6532 0.88064 24.0289 4.34639 24.0289 8.60187V24.05C24.0289 28.3112 20.6532 31.7712 16.5002 31.7712C12.3472 31.7712 8.9715 28.3055 8.9715 24.05V8.60755C8.9715 4.34639 12.3472 0.886322 16.5002 0.886322M16.5002 0.00568155C11.865 0.00568155 8.10913 3.85777 8.10913 8.61323V24.0614C8.10913 28.8168 11.865 32.6689 16.5002 32.6689C21.1354 32.6689 24.8913 28.8168 24.8913 24.0614V8.60755C24.8913 3.85209 21.1354 0 16.5002 0" fill="#F2F2F2"/>
<path d="M24.0288 8.60757C28.1817 8.60757 31.5575 12.0733 31.5575 16.3288C31.5575 20.5843 28.1817 24.05 24.0288 24.05H8.97139C4.81841 24.05 1.44269 20.5843 1.44269 16.3288C1.44269 12.0733 4.81841 8.60757 8.97139 8.60757H24.0288ZM24.0288 7.72693H8.97139C4.33616 7.72693 0.580322 11.579 0.580322 16.3345C0.580322 21.0899 4.33616 24.942 8.97139 24.942H24.0288C28.664 24.942 32.4198 21.0899 32.4198 16.3345C32.4198 11.579 28.664 7.72693 24.0288 7.72693Z" fill="#F2F2F2"/>
<path d="M8.47768 16.7719H1.09082V15.8912H8.47768C15.978 15.8912 16.0631 8.57338 16.0631 8.2609V0.27832H16.9255V8.25522C16.9255 11.1983 15.1554 16.7662 8.47768 16.7662" fill="#F2F2F2"/>
<path d="M31.9831 16.7719H24.5906C17.9072 16.7719 16.1484 11.2039 16.1484 8.2609V0.27832H17.0051V8.25522C17.0051 8.5677 17.0959 15.8855 24.5906 15.8855H31.9831V16.7662V16.7719Z" fill="#F2F2F2"/>
<path d="M17.0108 32.3963H16.1484V24.4023C16.1484 21.4593 17.9129 15.8914 24.5962 15.8914H31.9888V16.772H24.5962C17.0959 16.772 17.0108 24.0898 17.0108 24.4023V32.3963Z" fill="#F2F2F2"/>
<path d="M16.9255 32.3963H16.0632V24.4023C16.0632 24.0898 15.9781 16.772 8.47206 16.772H1.08521V15.8914H8.47206C15.1554 15.8914 16.9199 21.4593 16.9199 24.4023V32.3963H16.9255Z" fill="#F2F2F2"/>
</svg>
